<?xml version="1.0" standalone="no"?><!DOCTYPE svg PUBLIC "-//W3C//DTD SVG 1.1//EN" "http://www.w3.org/Graphics/SVG/1.1/DTD/svg11.dtd"><svg class="icon" width="200px" height="200.00px" viewBox="0 0 1024 1024" version="1.1" xmlns="http://www.w3.org/2000/svg"><path d="M111.8 551.5a400.2 377.3 0 1 0 800.4 0 400.2 377.3 0 1 0-800.4 0Z" fill="#DDE6F2" /><path d="M283.3 231.4L130.5 98.9c-8.6-7.4-22-3.1-24.5 8-14.4 64.9-45.5 242.5 28.7 307.4" fill="#D0DCEA" /><path d="M165 165.9c2.5-11.1 15.9-15.5 24.5-8l90.1 78.1 3.7-4.6L130.5 98.9c-8.6-7.4-22-3.1-24.5 8-14.4 64.9-45.5 242.5 28.7 307.4l17.8-21.9c-16.1-78.8 2.3-180.7 12.5-226.5z" fill="#E9F5FF" /><path d="M740.7 231.4L893.5 98.9c8.6-7.4 22-3.1 24.5 8 14.4 64.9 45.5 242.5-28.7 307.4" fill="#D0DCEA" /><path d="M918 106.9c-2.5-11.1-15.9-15.5-24.5-8l-38.7 33.5c11.7 61.4 24.9 166.3-2.9 235.9l37.4 46c74.2-64.9 43.1-242.5 28.7-307.4z" fill="#BDC9D1" /><path d="M764.6 258.9c47.6 62.1 75.7 138.3 75.7 220.7C840.3 688 661.2 857 440.1 857c-95.8 0-183.7-31.8-252.6-84.7 72.7 94.8 190.9 156.6 324.5 156.6 221 0 400.2-168.9 400.2-377.3 0-118.1-57.6-223.5-147.6-292.7z" fill="#C6D5E5" /><path d="M178.9 618.6c0-208.4 179.2-377.3 400.2-377.3 97.1 0 186.1 32.6 255.4 86.8-72.9-93.3-190.2-153.9-322.5-153.9-221 0-400.2 168.9-400.2 377.3 0 116.9 56.4 221.3 144.8 290.5-48.8-62.5-77.7-139.8-77.7-223.4z" fill="#E9F5FF" /><path d="M512 959.3c-237.5 0-430.7-183-430.7-407.8S274.5 143.7 512 143.7s430.7 182.9 430.7 407.8S749.5 959.3 512 959.3z m0-754.6c-203.8 0-369.7 155.6-369.7 346.8 0 191.2 165.8 346.8 369.7 346.8s369.7-155.6 369.7-346.8c0-191.2-165.9-346.8-369.7-346.8z" fill="#383F51" /><path d="M134.7 444.8c-7.1 0-14.3-2.5-20.1-7.5-82.5-72.2-59.5-242.1-38.4-337C79.7 84.5 91 72.1 106.3 67c15.4-5.1 31.9-1.8 44.1 8.8l152.9 132.5c12.7 11 14.1 30.3 3.1 43s-30.3 14.1-43 3.1L130.5 139.3c-19 100-21.5 212 24.3 252.1 12.7 11.1 14 30.4 2.9 43-6.1 6.9-14.5 10.4-23 10.4zM889.3 444.8c-8.5 0-16.9-3.5-23-10.4-11.1-12.7-9.8-31.9 2.9-43 45.8-40.1 43.3-152.1 24.3-252.1L760.7 254.4c-12.7 11-32 9.7-43-3.1-11-12.7-9.7-32 3.1-43L873.6 75.8c12.3-10.6 28.8-13.9 44.2-8.8 15.3 5.1 26.6 17.5 30.1 33.3 21.1 94.9 44.1 264.8-38.4 337-5.9 5-13 7.5-20.2 7.5z" fill="#383F51" /><path d="M370.3 465.8m-40 0a40 40 0 1 0 80 0 40 40 0 1 0-80 0Z" fill="#4B5063" /><path d="M619.4 465.8m-40 0a40 40 0 1 0 80 0 40 40 0 1 0-80 0Z" fill="#4B5063" /><path d="M234.6 620.2c-1.6 0-3.2-0.2-4.8-0.6L18.6 568.7c-10.9-2.6-17.6-13.6-15-24.5s13.6-17.6 24.5-15l211.2 50.9c10.9 2.6 17.6 13.6 15 24.5-2.2 9.3-10.5 15.6-19.7 15.6zM237.6 731.9H20.3C9.1 731.9 0 722.8 0 711.6s9.1-20.3 20.3-20.3h217.2c11.2 0 20.3 9.1 20.3 20.3s-9 20.3-20.2 20.3zM789.4 620.2c-9.2 0-17.5-6.3-19.8-15.6-2.6-10.9 4.1-21.9 15-24.5l211.2-50.9c10.9-2.6 21.9 4.1 24.5 15s-4.1 21.9-15 24.5l-211.2 50.9c-1.5 0.4-3.1 0.6-4.7 0.6zM1003.7 731.9H786.4c-11.2 0-20.3-9.1-20.3-20.3s9.1-20.3 20.3-20.3h217.2c11.2 0 20.3 9.1 20.3 20.3s-9 20.3-20.2 20.3zM443 715.4c-52.3 0-94.9-42.6-94.9-94.9 0-8.4 6.8-15.3 15.3-15.3 8.4 0 15.3 6.8 15.3 15.3 0 35.5 28.9 64.4 64.4 64.4s64.4-28.9 64.4-64.4c0-8.4 6.8-15.3 15.3-15.3 8.4 0 15.3 6.8 15.3 15.3-0.2 52.3-42.8 94.9-95.1 94.9z" fill="#383F51" /><path d="M558.1 715.4c-52.3 0-94.9-42.6-94.9-94.9 0-8.4 6.8-15.3 15.3-15.3s15.3 6.8 15.3 15.3c0 35.5 28.9 64.4 64.4 64.4s64.4-28.9 64.4-64.4c0-8.4 6.8-15.3 15.3-15.3 8.4 0 15.3 6.8 15.3 15.3-0.2 52.3-42.8 94.9-95.1 94.9z" fill="#383F51" /></svg>